<svg width="34" height="37" viewBox="0 0 34 37" fill="none" xmlns="http://www.w3.org/2000/svg">
    <path fill-rule="evenodd" clip-rule="evenodd"
        d="M20.926 35.4718C18.4966 36.8427 15.5034 36.8427 13.074 35.4718L3.92599 30.3092C1.49659 28.9382 4.69727e-06 26.4045 4.93698e-06 23.6626L5.83963e-06 13.3375C6.07935e-06 10.5954 1.49659 8.06175 3.92599 6.69081L13.074 1.52827C15.5034 0.157244 18.4966 0.157244 20.926 1.52827L30.074 6.69081C32.5034 8.06175 34 10.5954 34 13.3375L34 23.6626C34 26.4045 32.5034 28.9382 30.074 30.3092L20.926 35.4718Z"
        fill="url(#paint0_linear_19_8)" />
    <path opacity="0.9" fill-rule="evenodd" clip-rule="evenodd"
        d="M15.2272 17.4218C16.2393 16.833 17.4873 16.8234 18.5084 17.3966L25.3918 21.261C25.9543 21.5768 25.9543 22.3865 25.3918 22.7024L18.5084 26.5668C17.4873 27.14 16.2393 27.1304 15.2273 26.5415L8.61793 22.6961C8.07006 22.3773 8.07006 21.586 8.61793 21.2672L15.2272 17.4218Z"
        fill="url(#paint1_linear_19_8)" fill-opacity="0.3" />
    <path fill-rule="evenodd" clip-rule="evenodd"
        d="M15.2272 14.4219C16.2393 13.833 17.4873 13.8235 18.5084 14.3967L25.3918 18.261C25.9543 18.5768 25.9543 19.3866 25.3918 19.7024L18.5084 23.5668C17.4873 24.14 16.2393 24.1304 15.2273 23.5416L8.61793 19.6961C8.07006 19.3774 8.07006 18.5861 8.61793 18.2673L15.2272 14.4219Z"
        fill="url(#paint2_linear_19_8)" fill-opacity="0.4" />
    <path fill-rule="evenodd" clip-rule="evenodd"
        d="M15.0202 10.9485C16.0323 10.3596 17.2803 10.3501 18.3013 10.9233L25.1848 14.7876C25.7473 15.1035 25.7473 15.9132 25.1848 16.229L18.3013 20.0934C17.2803 20.6666 16.0323 20.6571 15.0203 20.0682L8.4109 16.2228C7.86303 15.904 7.86303 15.1127 8.4109 14.7939L15.0202 10.9485Z"
        fill="white" />
    <defs>
        <linearGradient id="paint0_linear_19_8" x1="5" y1="47.4179" x2="38.0204" y2="11.6512"
            gradientUnits="userSpaceOnUse">
            <stop stop-color="#6C26FF" />
            <stop offset="0.322917" stop-color="#D51ABC" />
            <stop offset="1" stop-color="#FFAA12" />
            <stop offset="1" stop-color="#FFC530" />
        </linearGradient>
        <linearGradient id="paint1_linear_19_8" x1="18.7076" y1="18.5221" x2="8.74557" y2="23.8646"
            gradientUnits="userSpaceOnUse">
            <stop stop-color="white" stop-opacity="0.475" />
            <stop offset="1" stop-color="white" stop-opacity="0.273" />
        </linearGradient>
        <linearGradient id="paint2_linear_19_8" x1="20.6887" y1="16.8783" x2="12.8111" y2="21.4852"
            gradientUnits="userSpaceOnUse">
            <stop stop-color="white" stop-opacity="0.201" />
            <stop offset="1" stop-color="white" stop-opacity="0.698" />
        </linearGradient>
    </defs>
</svg>
    