<svg width="68" height="30" viewBox="0 0 68 30" fill="none" xmlns="http://www.w3.org/2000/svg">
    <path
        d="M0 15.5677C0.040728 15.3355 0.0849976 15.1039 0.122774 14.87C0.420266 13.0086 1.32337 11.4934 2.73409 10.2629C3.89514 9.25152 5.18899 8.43099 6.49051 7.62109C8.26012 6.51878 9.97778 5.34026 11.6169 4.05068C11.6901 3.99338 11.7462 3.86755 11.7468 3.77362C11.7556 2.63941 11.7527 1.50461 11.7527 0.370392V0.108105H15.9701V0.348534C15.9701 5.05198 15.9766 9.75601 15.9666 14.4595C15.963 16.2618 15.6708 18.0139 14.8162 19.626C13.6675 21.7929 11.9044 23.1309 9.45481 23.5013C7.70645 23.7659 5.97227 23.6885 4.34196 22.9773C1.82214 21.8785 0.378358 19.9291 0.0501722 17.1786C0.0436793 17.1249 0.0171176 17.0723 0 17.0197V15.5677ZM11.7527 9.10502C10.7917 9.93146 9.75584 10.547 8.70104 11.1395C7.51521 11.8053 6.37955 12.5449 5.34482 13.4375C4.13065 14.4849 3.63542 17.0628 5.22677 18.4652C6.64693 19.7164 9.65077 20.0366 11.0509 17.5295C11.5373 16.6599 11.7267 15.703 11.7391 14.7194C11.7627 12.9046 11.7497 11.0899 11.7521 9.27574L11.7527 9.10502Z"
        fill="#1562E7" />
    <path
        d="M35.2358 30C35.2287 29.9179 35.2163 29.8358 35.2163 29.7543C35.2151 24.9746 35.2086 20.1955 35.2192 15.4165C35.2228 13.6006 35.5126 11.8354 36.3348 10.1926C37.3643 8.13803 39.017 6.88212 41.2665 6.44912C42.9198 6.1313 44.5719 6.17856 46.1893 6.68718C48.8673 7.52898 50.8104 9.94391 51.0713 12.7221C51.3576 15.7757 50.242 18.2101 47.8497 20.0916C46.7305 20.9712 45.5175 21.7055 44.2998 22.4356C42.6264 23.4393 41.0563 24.5894 39.5565 25.8389C39.4166 25.9546 39.357 26.0716 39.3587 26.2571C39.367 27.5053 39.3629 28.7524 39.3629 30H35.2358ZM39.3623 20.8477C39.4437 20.778 39.4874 20.7373 39.534 20.7006C40.0122 20.3196 40.4631 19.8966 40.9749 19.5694C41.8378 19.0182 42.7527 18.5474 43.6222 18.0057C44.435 17.4994 45.2413 16.9737 45.9183 16.2843C47.3001 14.8783 47.2529 12.7015 45.8534 11.3688C44.4427 10.0248 41.1667 9.80863 39.9089 12.6259C39.5459 13.4387 39.3947 14.3012 39.3759 15.1814C39.3499 16.4131 39.3646 17.6459 39.3629 18.8782C39.3617 19.5197 39.3623 20.1607 39.3623 20.8477Z"
        fill="#1562E7" />
    <path
        d="M67.3423 19.4707C67.2815 19.7318 67.2325 19.9964 67.157 20.254C66.7586 21.6074 65.9841 22.6624 64.6932 23.288C64.0817 23.5846 63.4336 23.7393 62.7489 23.7387C59.4547 23.7358 56.1592 23.737 52.865 23.737H52.577V19.5616H52.8302C56.0796 19.5616 59.3295 19.5622 62.5783 19.5616C62.9673 19.5616 63.1078 19.4169 63.1751 19.0365C63.3109 18.2715 62.8198 17.7121 62.1439 17.383C61.618 17.1272 61.0496 17.0463 60.4717 17.0427C59.1755 17.0357 57.8928 16.9293 56.6545 16.5158C55.2196 16.0373 53.9989 15.2505 53.1713 13.9497C52.6171 13.0783 52.453 12.0947 52.5014 11.0828C52.6029 8.94198 53.7711 7.54371 55.667 6.70132C56.2655 6.43489 56.923 6.39236 57.5771 6.39236C60.4563 6.39413 63.3351 6.39295 66.2143 6.39354C66.2509 6.39354 66.2881 6.39768 66.3383 6.40063V10.5305H66.0762C63.2725 10.5305 60.4687 10.5305 57.6656 10.5299C57.3587 10.5299 57.0588 10.537 56.8634 10.8371C56.5777 11.2754 56.7165 11.8537 57.191 12.1544C57.7057 12.4793 58.2812 12.6471 58.8774 12.702C59.6802 12.777 60.49 12.7753 61.2933 12.8497C63.0677 13.0157 64.6596 13.6082 65.8885 14.9616C66.6541 15.8028 67.1245 16.7964 67.2951 17.9259C67.3022 17.9737 67.327 18.0186 67.3429 18.0641L67.3423 19.4707Z"
        fill="#1562E7" />
    <path
        d="M31.2904 0.000590736C31.4143 0.0437145 31.5412 0.0803402 31.661 0.131734C33.25 0.813444 33.505 2.35645 32.5753 3.44163C31.952 4.16942 30.8872 4.36909 30.0597 3.93017C29.2073 3.47944 28.7215 2.47223 28.9848 1.57786C29.2061 0.827622 29.7415 0.344399 30.4787 0.0886105C30.5673 0.0578922 30.6564 0.0295368 30.7455 0L31.2904 0.000590736Z"
        fill="#1562E7" />
    <path
        d="M22.1677 23.7282H18.0099V23.4783C18.0099 20.6043 17.988 17.731 18.0158 14.8571C18.0459 11.7917 19.3261 9.37798 21.9186 7.71151C23.0023 7.01503 24.2294 6.68776 25.4914 6.494C25.8993 6.43197 26.3142 6.41189 26.7457 6.37054V10.423C26.0652 10.4502 25.4165 10.6032 24.7961 10.8737C23.0424 11.6375 22.1747 12.985 22.1694 14.8884C22.1629 17.7475 22.1677 20.6055 22.1677 23.4647V23.7282Z"
        fill="#1562E7" />
    <path d="M33.0936 6.41067H28.9399V23.7305H33.0936V6.41067Z" fill="#1562E7" />
</svg>
    