<svg width="73" height="36" viewBox="0 0 73 36" fill="none" xmlns="http://www.w3.org/2000/svg">
    <path
        d="M51.9494 10.7906H51.2982H50.8396H50.7845C49.2528 10.7906 47.4413 10.8732 45.318 10.7906H44.9786C44.52 10.7906 43.5478 10.7035 43.5341 10.7035L42.8553 10.6439C41.9381 10.5659 40.9934 10.4467 39.9891 10.277L39.2461 10.1486L38.8426 10.089C38.5858 10.0385 37.5035 9.80006 37.2604 9.74044C37.0173 9.68083 36.8385 9.63955 36.6229 9.58452C36.2377 9.48821 35.8479 9.37815 35.4489 9.2635L34.8986 9.0984C34.5271 8.99293 34.1511 8.8691 33.7659 8.74069L33.078 8.50681C32.7432 8.39216 32.4084 8.26834 32.0645 8.13993L39.6268 2.63672L51.9494 10.7906Z"
        fill="#C6EBF4" />
    <path
        d="M21.606 34.1288C20.3831 34.1288 19.4934 33.7619 18.9369 33.0281C18.3805 32.2944 18.0962 31.1372 18.0839 29.5565V27.2635C18.0839 25.6493 18.3683 24.4798 18.9369 23.7552C19.5056 23.0306 20.4136 22.6684 21.661 22.6684C22.4475 22.6246 23.2263 22.8423 23.8761 23.2875C24.128 23.4562 24.3387 23.6794 24.4927 23.9405C24.6467 24.2017 24.74 24.4942 24.7657 24.7963C24.771 24.8218 24.7847 24.8448 24.8047 24.8614C24.8247 24.8781 24.8498 24.8875 24.8758 24.888H26.7836C26.814 24.888 26.8432 24.8759 26.8647 24.8544C26.8862 24.8329 26.8982 24.8037 26.8982 24.7733C26.8905 23.8569 26.531 22.9786 25.8939 22.3198C24.995 21.3109 23.5459 20.8064 21.5464 20.8064C19.6936 20.8064 18.2903 21.3476 17.3364 22.4299C16.3825 23.5122 15.9071 25.1265 15.9102 27.2727V29.9968C15.9102 31.9841 16.3871 33.4806 17.341 34.4865C18.2949 35.4924 19.6997 35.9968 21.5555 35.9999C23.7935 35.9999 25.3359 35.367 26.1828 34.1013C26.4357 33.7422 26.635 33.3483 26.7744 32.9318C26.8826 32.5109 26.9365 32.0778 26.9349 31.6432C26.935 31.6135 26.9235 31.5851 26.903 31.5637C26.8825 31.5423 26.8545 31.5297 26.8249 31.5285H24.8804C24.8544 31.529 24.8293 31.5384 24.8093 31.5551C24.7893 31.5717 24.7755 31.5947 24.7703 31.6202C24.4722 33.152 23.445 34.1288 21.606 34.1288Z"
        fill="#25314C" />
    <path
        d="M59.5689 22.7647C59.5981 22.7647 59.6261 22.7531 59.6468 22.7324C59.6674 22.7118 59.679 22.6838 59.679 22.6546V20.9165C59.6797 20.9019 59.6772 20.8873 59.672 20.8736C59.6666 20.86 59.6586 20.8476 59.6482 20.8372C59.6379 20.8269 59.6255 20.8188 59.6118 20.8135C59.5982 20.8082 59.5836 20.8058 59.5689 20.8064H56.3587V17.2523C56.3587 17.2231 56.3471 17.1951 56.3265 17.1744C56.3059 17.1538 56.2779 17.1422 56.2487 17.1422L54.295 17.7384C54.2658 17.7384 54.2378 17.75 54.2172 17.7706C54.1966 17.7913 54.185 17.8193 54.185 17.8485V20.8064H52.0525C52.0233 20.8064 51.9953 20.818 51.9746 20.8387C51.954 20.8593 51.9424 20.8873 51.9424 20.9165V22.6546C51.9424 22.6838 51.954 22.7118 51.9746 22.7324C51.9953 22.7531 52.0233 22.7647 52.0525 22.7647H54.185V31.9367C54.185 33.2024 54.4693 34.1288 55.038 34.7158C55.6066 35.3028 56.5223 35.6024 57.785 35.6147H59.5735C59.6027 35.6147 59.6307 35.6031 59.6513 35.5824C59.672 35.5618 59.6836 35.5338 59.6836 35.5046V33.7986C59.6836 33.7694 59.672 33.7414 59.6513 33.7208C59.6307 33.7001 59.6027 33.6885 59.5735 33.6885H57.9776C57.7518 33.7134 57.5234 33.6848 57.3107 33.6052C57.098 33.5255 56.907 33.397 56.7531 33.2299C56.4631 32.7458 56.3331 32.1825 56.3817 31.6202V22.7647H59.5689Z"
        fill="#25314C" />
    <path
        d="M39.9959 24.7642C39.986 24.576 39.9536 24.3897 39.8996 24.2093C39.7091 23.557 39.3859 22.9513 38.9503 22.4299C37.9964 21.3476 36.5931 20.8064 34.7403 20.8064C32.7408 20.8064 31.2901 21.3109 30.3882 22.3198C29.778 22.9836 29.4492 23.8582 29.471 24.7596C29.471 24.79 29.4831 24.8191 29.5046 24.8406C29.5261 24.8621 29.5552 24.8742 29.5856 24.8742H31.4934C31.5201 24.8735 31.5457 24.8635 31.5658 24.8459C31.5859 24.8283 31.5992 24.8043 31.6035 24.7779C31.6162 24.48 31.6972 24.1889 31.8403 23.9273C31.9835 23.6657 32.1849 23.4405 32.429 23.2691C33.0809 22.8248 33.8608 22.6073 34.6486 22.65C35.896 22.65 36.804 23.0123 37.3727 23.7369C37.6346 24.0816 37.7936 24.4934 37.8313 24.9247C37.8313 25.076 37.8313 25.2319 37.8313 25.3833V27.0067C37.2626 26.9333 36.6939 26.8783 36.1253 26.8416C35.5566 26.8049 35.0888 26.7866 34.722 26.7866C32.7194 26.7866 31.2504 27.1626 30.3148 27.9147C29.3793 28.6668 28.9115 29.8607 28.9115 31.4964C28.9115 33.0251 29.3563 34.1395 30.246 34.8396C31.0302 35.445 32.6766 35.7568 34.3367 35.8485C34.7745 35.8676 35.213 35.8523 35.6483 35.8027C37.0474 35.6813 38.4261 35.3871 39.7528 34.9267C39.8236 34.9057 39.8861 34.8629 39.9313 34.8045C39.9766 34.7461 40.0023 34.675 40.005 34.6011V25.3466C40.0188 25.1356 40.0096 24.9384 39.9959 24.7642ZM32.3877 33.6289C32.15 33.5496 31.9326 33.4189 31.7511 33.2462C31.5696 33.0734 31.4284 32.8627 31.3375 32.6292C31.2069 32.263 31.1447 31.8759 31.1541 31.4872C31.1541 30.4569 31.4246 29.7216 31.9658 29.2814C32.5069 28.8411 33.4853 28.621 34.9008 28.621C35.2081 28.621 37.0379 28.7769 37.7212 28.8549C37.7553 28.8583 37.7868 28.8743 37.8097 28.8997C37.8326 28.9252 37.8452 28.9582 37.845 28.9925V33.3033C37.845 33.3333 37.8357 33.3626 37.8185 33.3872C37.8013 33.4118 37.7769 33.4306 37.7487 33.4409C36.0307 34.0901 34.1469 34.1561 32.3877 33.6289Z"
        fill="#25314C" />
    <path
        d="M72.5198 24.7642C72.5055 24.5818 72.4701 24.4018 72.4143 24.2276C72.2239 23.5754 71.9007 22.9696 71.465 22.4482C70.5112 21.3659 69.1078 20.8248 67.2551 20.8248C65.2495 20.8248 63.7988 21.3292 62.903 22.3382C62.2928 23.0019 61.964 23.8766 61.9858 24.7779C61.9858 24.8083 61.9978 24.8375 62.0193 24.859C62.0409 24.8805 62.07 24.8926 62.1004 24.8926H64.0082C64.0349 24.8918 64.0605 24.8818 64.0806 24.8642C64.1007 24.8467 64.114 24.8226 64.1183 24.7963C64.1309 24.4983 64.212 24.2073 64.3551 23.9456C64.4983 23.684 64.6997 23.4588 64.9437 23.2875C65.5954 22.8425 66.3755 22.6249 67.1634 22.6684C68.4108 22.6684 69.3188 23.0306 69.8875 23.7552C70.1514 24.0988 70.3106 24.5112 70.3461 24.943C70.3461 25.0943 70.369 25.2503 70.369 25.4016V27.0251C69.8003 26.9517 69.2317 26.8966 68.663 26.86C68.0943 26.8233 67.622 26.8049 67.2551 26.8049C65.2556 26.8049 63.7881 27.181 62.8525 27.9331C61.917 28.6852 61.4507 29.8791 61.4538 31.5148C61.4538 33.0434 61.8986 34.1578 62.7883 34.858C63.5725 35.4633 65.2189 35.7752 66.879 35.8669C67.3168 35.886 67.7553 35.8706 68.1906 35.821C69.5897 35.6997 70.9684 35.4055 72.2951 34.9451C72.3659 34.924 72.4284 34.8813 72.4736 34.8229C72.5189 34.7645 72.5446 34.6933 72.5473 34.6195V25.3466C72.5427 25.1356 72.5336 24.9384 72.5198 24.7642ZM64.9116 33.6289C64.6739 33.5496 64.4565 33.4189 64.275 33.2462C64.0935 33.0734 63.9523 32.8627 63.8614 32.6292C63.7309 32.263 63.6687 31.8759 63.678 31.4872C63.678 30.4569 63.9486 29.7216 64.4897 29.2814C65.0309 28.8411 66.0092 28.621 67.4248 28.621C67.732 28.621 69.5618 28.7769 70.2452 28.8549C70.2788 28.8592 70.3098 28.8755 70.3325 28.9008C70.3552 28.926 70.3682 28.9585 70.369 28.9925V33.3033C70.3677 33.333 70.358 33.3618 70.3409 33.3862C70.3239 33.4105 70.3002 33.4295 70.2727 33.4409C68.5547 34.0901 66.6709 34.1561 64.9116 33.6289Z"
        fill="#25314C" />
    <path
        d="M50.0896 22.9297C50.1168 22.9285 50.1424 22.9169 50.1612 22.8972C50.18 22.8776 50.1905 22.8514 50.1905 22.8242V20.9119C50.1905 20.545 47.6728 21.1091 47.4389 21.1824C46.9101 21.3018 46.4134 21.5341 45.9828 21.8634C45.5522 22.1927 45.1979 22.6112 44.9441 23.0902V21.3521C44.9441 21.3365 44.941 21.321 44.935 21.3065C44.929 21.292 44.9202 21.2789 44.9092 21.2678C44.8981 21.2567 44.885 21.248 44.8705 21.242C44.856 21.236 44.8405 21.2329 44.8249 21.2329H42.9308C42.8992 21.2329 42.8689 21.2455 42.8465 21.2678C42.8242 21.2902 42.8116 21.3205 42.8116 21.3521V35.5045C42.8116 35.5366 42.824 35.5674 42.8462 35.5905C42.8685 35.6136 42.8988 35.6272 42.9308 35.6284H44.8845C44.9165 35.6272 44.9468 35.6136 44.9691 35.5905C44.9913 35.5674 45.0037 35.5366 45.0037 35.5045V27.5753C44.983 26.6437 45.171 25.7192 45.554 24.8696C45.7947 24.3318 46.1787 23.8706 46.6641 23.5365C47.1494 23.2024 47.7173 23.0084 48.3056 22.9756C48.73 22.9222 49.1574 22.8962 49.5851 22.8976L50.0896 22.9297Z"
        fill="#25314C" />
    <path
        d="M50.8634 11.6576C21.6047 20.637 0 11.6576 0 11.6576L16.0969 0C22.2054 4.48053 27.516 7.25965 32.0654 8.97482C32.4093 9.10322 32.7441 9.22705 33.0789 9.3417L33.7668 9.57558C34.152 9.70399 34.528 9.82781 34.8995 9.93329L35.4498 10.0984C35.8488 10.213 36.2386 10.3231 36.6238 10.4194C36.8394 10.4744 37.0503 10.5295 37.2613 10.5753C37.4723 10.6212 39.1278 10.9789 39.27 11.0064L40.0129 11.1348C41.0172 11.3045 41.9711 11.4237 42.8792 11.5017L43.5579 11.5613C43.5579 11.5613 44.5439 11.6301 45.0025 11.6485H45.3418C47.4652 11.7264 49.2766 11.6485 50.8084 11.6485L50.8634 11.6576Z"
        fill="#1B98ED" />
</svg>
    