<svg width="22" height="22" viewBox="0 0 22 22" fill="none" xmlns="http://www.w3.org/2000/svg">
    <path opacity="0.3"
        d="M7.08443 4.77045L7.84597 6.13502C8.53323 7.36647 8.25734 8.98192 7.17492 10.0643C7.17492 10.0643 7.17492 10.0643 7.17492 10.0643C7.1748 10.0645 5.86209 11.3774 8.24247 13.7578C10.6222 16.1375 11.9351 14.8262 11.9359 14.8254C11.936 14.8253 11.9359 14.8253 11.936 14.8253C13.0184 13.7429 14.6338 13.467 15.8653 14.1543L17.2298 14.9158C19.0893 15.9536 19.3089 18.5614 17.6745 20.1958C16.6923 21.178 15.4892 21.9422 14.1592 21.9926C11.9202 22.0775 8.11782 21.5108 4.30364 17.6966C0.489452 13.8824 -0.0771917 10.0801 0.00768762 7.84111C0.0581084 6.51109 0.822313 5.30794 1.80444 4.32581C3.43891 2.69134 6.04667 2.91095 7.08443 4.77045Z"
        fill="#01103D" />
    <path
        d="M10.8646 0.739036C10.9423 0.25925 11.3959 -0.0662177 11.8757 0.0114575C11.9054 0.0171423 12.0009 0.0350017 12.051 0.046152C12.1511 0.0684501 12.2908 0.102781 12.4649 0.153502C12.8132 0.254933 13.2996 0.422028 13.8835 0.689721C15.0526 1.22567 16.6083 2.16321 18.2226 3.77756C19.8369 5.3919 20.7745 6.9476 21.3104 8.11662C21.5781 8.70051 21.7452 9.187 21.8467 9.53524C21.8974 9.70938 21.9317 9.84904 21.954 9.94917C21.9652 9.99923 21.9733 10.0394 21.979 10.0691L21.9857 10.1057C22.0634 10.5855 21.7409 11.0578 21.2611 11.1355C20.7827 11.213 20.332 10.8891 20.2524 10.4115C20.25 10.3987 20.2432 10.3643 20.236 10.3318C20.2215 10.2668 20.1965 10.1637 20.1568 10.0274C20.0774 9.75482 19.9395 9.34961 19.7105 8.85013C19.2531 7.85239 18.4305 6.47462 16.978 5.02212C15.5255 3.56963 14.1478 2.74709 13.15 2.28967C12.6505 2.06068 12.2453 1.92277 11.9727 1.84336C11.8364 1.80366 11.6651 1.76434 11.6001 1.74987C11.1226 1.67029 10.7872 1.21745 10.8646 0.739036Z"
        fill="#01103D" />
    <path fill-rule="evenodd" clip-rule="evenodd"
        d="M11.1301 4.78659C11.2636 4.31926 11.7507 4.04866 12.2181 4.18218L11.9763 5.02836C12.2181 4.18218 12.2181 4.18218 12.2181 4.18218L12.2198 4.18266L12.2216 4.18318L12.2255 4.18433L12.2346 4.18704L12.2578 4.19427C12.2755 4.19993 12.2976 4.2073 12.3239 4.21665C12.3766 4.23535 12.4463 4.26194 12.5317 4.29856C12.7026 4.37182 12.9362 4.48496 13.2231 4.65476C13.7975 4.99467 14.5815 5.55928 15.5026 6.48035C16.4236 7.40143 16.9883 8.18547 17.3282 8.7598C17.498 9.04671 17.6111 9.28029 17.6844 9.45123C17.721 9.53666 17.7476 9.60631 17.7663 9.65901C17.7756 9.68535 17.783 9.70745 17.7887 9.72514L17.7959 9.74836L17.7986 9.75745L17.7997 9.76137L17.8003 9.76316C17.8003 9.76316 17.8007 9.76485 16.9546 10.0066L17.8007 9.76485C17.9343 10.2322 17.6637 10.7193 17.1963 10.8528C16.733 10.9852 16.2502 10.7203 16.1119 10.2602L16.1075 10.2476C16.1013 10.23 16.0883 10.1953 16.0666 10.1446C16.0232 10.0433 15.9445 9.87754 15.8135 9.65625C15.5519 9.21418 15.0793 8.54623 14.258 7.72492C13.4367 6.9036 12.7687 6.43107 12.3267 6.16944C12.1054 6.03847 11.9397 5.95974 11.8384 5.91633C11.7877 5.8946 11.753 5.88165 11.7353 5.8754L11.7227 5.87106C11.2626 5.73274 10.9977 5.24996 11.1301 4.78659Z"
        fill="#01103D" />
</svg>
    