<svg width="20" height="20" viewBox="0 0 20 20" fill="none" xmlns="http://www.w3.org/2000/svg">
    <path opacity="0.3"
        d="M10 20C15.5228 20 20 15.5228 20 10C20 4.47715 15.5228 0 10 0C4.47715 0 0 4.47715 0 10C0 11.5997 0.375616 13.1116 1.04346 14.4525C1.22094 14.8088 1.28001 15.2161 1.17712 15.6006L0.581511 17.8267C0.322954 18.793 1.20701 19.677 2.17335 19.4185L4.39939 18.8229C4.78393 18.72 5.19121 18.7791 5.54753 18.9565C6.88836 19.6244 8.40032 20 10 20Z"
        fill="#01103D" />
    <path
        d="M5.825 10.8495C5.36937 10.8495 5 11.2189 5 11.6745C5 12.1301 5.36937 12.4995 5.825 12.4995H11.875C12.3306 12.4995 12.7 12.1301 12.7 11.6745C12.7 11.2189 12.3306 10.8495 11.875 10.8495H5.825Z"
        fill="#1C274C" />
    <path
        d="M5.825 6.99951C5.36937 6.99951 5 7.36888 5 7.82451C5 8.28015 5.36937 8.64951 5.825 8.64951H14.625C15.0806 8.64951 15.45 8.28015 15.45 7.82451C15.45 7.36888 15.0806 6.99951 14.625 6.99951H5.825Z"
        fill="#1C274C" />
</svg>
    